<svg width="32" height="35" viewBox="0 0 310 335" fill="none" xmlns="http://www.w3.org/2000/svg">
<path d="M130.655 318.665L102.254 302.687C87.0276 311.268 93.0296 334.716 110.452 334.716H122.383C125.239 334.716 128.093 333.976 130.582 332.571C135.926 329.538 135.926 321.772 130.582 318.738L130.655 318.665Z" fill="#3355b8"/>
<path d="M105.327 69.8384C113.159 78.2707 126.336 78.2707 134.168 69.8384C141.342 62.1453 141.342 50.0887 134.168 42.3956L100.935 6.66906C97.202 2.67453 92.0041 0.381332 86.5143 0.381332C69.1651 0.381332 60.1613 21.3148 72.0937 34.1119L105.327 69.8384Z" fill="#3355b8"/>
<path d="M204.956 118.436C197.123 110.003 183.874 110.003 176.04 118.436C168.867 126.129 168.867 138.185 176.04 145.878L246.315 221.4L198.294 248.473C184.752 256.091 184.752 275.841 198.294 283.46C204.296 286.863 211.617 286.863 217.619 283.46L310 231.386L204.883 118.436H204.956Z" fill="#3355b8"/>
<path d="M198.292 297.141L195.876 295.736L155.175 272.806L63.8934 221.398L155.175 123.389L182.334 94.1701L238.187 34.1818C250.118 21.3847 241.115 0.451263 223.765 0.451263C218.276 0.451263 213.079 2.74447 209.345 6.739L155.175 64.9529L127.945 94.1701L0.280884 231.383L114.549 295.81L155.25 318.741L179.04 332.203C181.967 333.904 185.335 334.718 188.702 334.718C209.126 334.718 216.227 307.276 198.365 297.216L198.292 297.141Z" fill="#3355b8"/>
</svg>
